<?xml version="1.0" encoding="utf-8"?>
<!-- Generator: Adobe Illustrator 27.1.0, SVG Export Plug-In . SVG Version: 6.00 Build 0)  -->
<svg version="1.1" id="Capa_1" xmlns="http://www.w3.org/2000/svg" xmlns:xlink="http://www.w3.org/1999/xlink" x="0px" y="0px"
	 viewBox="0 0 531 174" style="enable-background:new 0 0 531 174;" xml:space="preserve">
<path d="M444,46.3c-0.8-14.5-16-12.2-26.6-12.2l0,61.7c7.3,0,17.9,1.1,23.4-3.9c3.9-4.9,3.5-11.2,3.5-17.2
	C444.2,65.3,444.5,55.8,444,46.3z M436.3,82.3c-0.2,1.6-0.6,2.7-1.4,4c-2.4,2.1-6.7,1.9-9.7,1.9c-0.3-15.1-0.1-31.3,0-46.5
	c2.8,0,6.5-0.2,8.9,1.4c1.4,0.9,1.8,2,2.1,3.5C437,50.5,436.9,77.8,436.3,82.3z"/>
<path d="M75.8,68.3c-1.6-2.8-3.2-3.9-5.6-5.6c2.6-1.4,5.3-3.9,5.8-7c3.9-23.4-8.2-21.7-25.1-21.6l0,61.7c8.5,0,21.8,1.8,25.7-7.4
	C78.1,83,78.6,73.3,75.8,68.3z M58.6,41.8c7.3-0.1,10.8-0.2,10.3,8.5c-0.2,2.9,0.1,5.2-1.8,7.7c-2.8,1.8-5.3,1.5-8.5,1.5L58.6,41.8z
	 M70,80.7c-0.1,2.2-0.3,4-1.6,5.8c-2.7,1.9-6.6,1.7-9.8,1.7c0-7,0-14,0.1-21C69.8,67.1,70.3,70.2,70,80.7z"/>
<path d="M361.6,34.1l7.8,0.1l0,61.7c-2.6,0-5.2,0-7.7,0l0-18.3c0.1-5.7,0.1-11.4,0-17.1c-1,3.2-2,8.8-2.7,12.3L354,95.9l-5,0
	c-2.6-11.9-5.3-24.4-7.7-36.3c-0.2,3.8-0.1,9.3-0.1,13.2l0,23l-7.7,0c-0.4-20.2-0.1-41.5,0-61.7c2.6,0,5.2,0,7.8,0
	c0.3,2.7,2.5,11.4,3.2,14.6l7,30.8C354.7,64.6,358.7,49.1,361.6,34.1z"/>
<path d="M108.6,68.4c3.1-1.8,5.3-4.5,6.1-8c1.3-5.5,1.4-15.5-1.4-20.4c-4.2-7.5-17.4-5.7-24.8-5.8c0,20.4-0.2,41.3,0,61.7l7.7,0
	c0-8.2-0.1-16.8,0.1-24.9c12.1,0,11.5,3.2,11.4,14.3c0,3.2-0.1,7.4,0.5,10.5c2.6,0.2,5.1,0.2,7.7,0.2
	C114.5,86.6,118.7,72.6,108.6,68.4z M107.8,51.9c-0.1,3.5,0.2,6.4-2.1,9.3c-2.7,2.1-6.2,2-9.5,2V41.8
	C104.4,41.5,108.2,42.7,107.8,51.9z"/>
<path d="M315.9,68.5c3-1.8,5.6-5,6.2-8.4c1.3-8.7,2.4-23.2-9.1-25.2c-5.8-1-11.4-0.7-17.2-0.7l0,61.7c2.6,0,5.2,0,7.7,0
	c0-8.1-0.1-16.8,0-24.9c11.8-0.1,11.5,3.2,11.4,13.9l0,1.1c0,3.5,0,6.3,0.5,9.8c2.6,0.1,5.2,0.1,7.8,0
	C321.1,86.8,326.6,72.7,315.9,68.5z M315.1,51.8c-0.1,3.3,0.1,6.6-2.1,9.4c-2.6,2.2-6.3,2.1-9.5,2.1l0.1-21.5
	C311.7,41.6,315.4,42.6,315.1,51.8z"/>
<path d="M280.2,54.9c-0.9-6-2.5-15-2.9-20.7c-3.4,0-7.6,0.1-10.9-0.1l-5.4,37.2c-1.2,8-2.3,16.5-3.6,24.4c2.6,0.1,5.1,0.1,7.7,0.1
	c0.6-4.1,1.1-8.3,1.6-12.4H277c0.4,4.1,0.9,8.3,1.5,12.4l7.7,0L280.2,54.9z M271.9,75.7l-4.2,0c0.8-4.2,1.4-11.2,2-15.7
	c0.6-4.4,1.7-11.9,1.8-16.1c1,0.8,4,28.7,4.4,31.7L271.9,75.7z"/>
<path d="M406.4,86.6c-2.4-17.5-5.2-34.9-7.5-52.4c-3.6-0.1-7.3-0.1-10.9,0c-2.7,20.4-6.4,41.5-8.8,61.7l7.6,0
	c0.5-4.1,1-8.3,1.5-12.4c1.3,0,9.3-0.2,10.1,0.1c0.7,4.1,1.1,8.2,1.6,12.3l7.7-0.1C407.3,92.8,406.8,89.7,406.4,86.6z M394.2,75.7
	l-4.8,0c0.1-1.2,0.3-2.5,0.4-3.7c1.3-9.3,2.2-18.7,3.7-28c0.3,0.3,3.7,28.7,4.1,31.7L394.2,75.7z"/>
<path d="M148.2,54.5c-0.7-4.9-2.6-15.7-2.8-20.3c-3.1,0-8,0.1-10.9-0.1l-5.6,38.6c-1.1,7.5-2.1,15.6-3.4,23c2.6,0.1,5.2,0.2,7.7,0.1
	l1.6-12.4l10.2,0c0.5,4.2,0.9,8.3,1.5,12.4l7.6,0L148.2,54.5z M135.8,75.7c1.4-9.5,2.5-19.8,3.7-29.4l0.4-0.1l0.5,0.9
	c1.2,9.5,2.4,19.1,3.5,28.7H135.8z"/>
<path d="M140.4,47.1l-0.5-0.9l-0.4,0.1c0-1.1,0-2.2,0.2-3.3C139.9,44.2,140.3,45.8,140.4,47.1z"/>
<path d="M476.1,56.3c-1-7.3-2.3-14.9-3.1-22.2c-3.7,0-7.3,0-10.9,0l-8.9,61.7l7.7,0c0.5-4.1,1.1-8.3,1.5-12.4h10.2l1.5,12.4l7.7,0
	L476.1,56.3z M468.3,75.7l-4.9,0l4-31.8c0.8,1.3,3.8,28.2,4.2,31.8L468.3,75.7z"/>
<path d="M210.3,33.5c0.8-0.1,1.5-0.1,2.3-0.2c11.7-0.3,13.4,9.4,13.7,18.7c-2.6,0-5.2,0-7.7,0c0-2.8-0.2-8.1-2.4-9.8
	c-5.7-4.4-8.4,1.6-8.2,6.3c0.3,7.7,6.9,11,11.9,15.4c7.6,6.7,9.1,21.4,2.9,29.3c-2.1,2.7-6.4,3.3-9.8,3.3
	c-12.8-0.9-12.9-11.4-13.2-21.8c2.4-0.1,5.3-0.1,7.8-0.1c-0.1,3.1,0.1,5.8,0.7,9c0.8,4.8,6.4,7.8,9.6,3c1-1.5,0.8-4,1-5.8
	c1.2-13.2-15.5-15.1-18-27c-1-4.5-0.9-11.2,1.5-15.3C204.3,35.6,206.9,34.4,210.3,33.5z"/>
<path d="M173.3,33.5c0.5-0.1,0.9-0.1,1.4-0.1c12.4-0.6,14.1,8.7,14.4,18.7l-7.7,0l0-0.3c0-4-0.4-10.9-5.8-11
	c-3.8-0.1-4.7,4.8-4.7,7.6c0,7.7,6.9,10.9,11.9,15.5c4.7,4.3,6.8,9.6,6.8,15.9c0,10.1-2.5,16.6-13.5,16.8
	c-12.8-0.9-13-11.4-13.2-21.8c2.6-0.1,5.1-0.1,7.7,0c0.1,5.2-0.5,15.7,7.6,13.9c3.6-0.8,3.6-5.2,3.8-8.2c0.8-13-16-15-18-26.7
	C162.2,45,163,35.8,173.3,33.5z"/>
<path d="M280.5,124.3c-3.6-6.1-10-6.2-16.4-6.2c0.3-1.9,1.1-5.3-1.4-6c0.1,2.4-0.1,3.8-0.3,6.1c-3,0.6-9.9,1.7-11.8,4.2
	c-0.2,0.9-0.3,0.6,0,1.4l0.6,0.5c3.7-3,6.2-3.4,10.8-4.4c-1.9,8-3.3,12.7-5.8,20.5c-1.9,0.3-5.2,1-7.2,0.2c-0.5-0.2-0.3-1-1.3-1.1
	l-0.3,0.4c0.4,2.2,2.7,2.4,4.5,2.4c1.1,0,2.3,0,3.3-0.2l0.3,0.3l0,0.1c-0.2,1.3,0.3,2.4,1.6,2.8l0.3-0.3c-0.1-1-0.5-2.1,0-2.8
	c1-0.8,4-1.2,5.6-1.8c6-2.2,16-6.3,17.5-13.3C280.6,126.6,280.5,124.7,280.5,124.3z M269.8,135.6c-4.2,2.3-7.2,3.3-11.7,4.4
	c2.4-5.7,4.5-14.5,5.7-20.4C280,118.8,285.8,126.4,269.8,135.6z"/>
<path d="M185.5,129.8c0.2-3,5.8-15.5-1-14.9c-6.5,4-10.2,11.7-14.5,17.6c-0.7,1-2.4,0.7-3,1.5c2.6,4.3-3.1,5.7-2.9,8.8l0.4,0.4
	c2.6,0,4.8-6,6.1-8.2c0.8-0.3,2-0.9,2.8-1.1c3.4-1.1,6.4-1.6,9.9-2.2c-0.7,2.3-3.2,13.8-0.8,15l0.5-0.3c0.1-1-0.2-2.2-0.1-3.1
	c0.2-2.6,0.9-9.3,2-11.2c0.6-0.4,1-0.6,1.5-1.1l0-0.4C186.3,130.3,185.5,129.9,185.5,129.8z M183.6,130.1c-3.4,0.2-7,1.1-10.3,1.9
	l-0.5,0.1l-0.2-0.4c0.5-1,1.9-3,2.5-4c3-4.4,5.6-8.5,10.1-11.4c0.1,0,0.6,0.2,0.7,0.2C187,118.7,184.3,127.7,183.6,130.1z"/>
<path d="M312.6,114.5c0.3,0.1,0.6,0.2,0.8,0.5c3.4,3.2-10,26.2-9.7,31.8l0.5,0.4c3.2,0.4,17.5-6.4,17.8-1.5c-2.3-0.3-4-0.3-6.4,0.1
	c-2.8,0.5-14.2,6.4-13.4-0.6c0.9-7.6,6.2-15.7,8.5-23.1C311.5,119.5,311.8,116.9,312.6,114.5z"/>
<path d="M388.4,129.9c-2.3-0.9-3.8,2.1-4.8-0.3c-0.3-0.7-0.6-0.7-1.2-1c-0.3,0.9-0.6,2-0.9,2.9c-2.6,1.9-3.7,2.2-6.8,2.8
	c0.2-1.2,0.9-3.5,0.1-4.4c-3.3-4-7.6,5.4-5.6,8.4c1.7,0.8,3.5-1.1,4.6-2.3c0.1,0,6.4-2.1,7.7-2.9c-0.5,1.4-1.1,3.1-1.1,4.5l0.5,0.2
	c1.7-1.5,2.7-3.8,4.5-5.5c1.7-1.7,2-1.2,3.1-1.9L388.4,129.9z M372.4,134.5c-2.3-1.3-0.8-2.6,0.6-3.9c0.6,0.2,0.4,0,0.8,0.5
	C373.8,132.2,373.3,133.8,372.4,134.5z"/>
<path d="M218.4,128.7c1.1,0.4,1.2,0.8,1.9,2c1.5-0.1,2.9-1.5,4.2-0.4c-0.3,0.6-2.3,1.2-3.1,1.9c-1.8,1.6-2.5,3.7-3.9,5.5
	c-0.3,0.3-0.6,0.3-0.9,0.2c-0.3-0.6-0.1-1.7,0-2.4l-0.2-0.2c-5.2,4.3-8.7,5.9-9.6-2.3c-1.4,1.7-2.6,3.4-4.7,4.1
	c-3.8-1-1.7-5.8,0-5.6c0.8,1.3-0.1,3.4-0.5,4.8c1.2-1,2.4-2.2,3.4-3.3c1-1.1,2.1-3.5,3.7-3.3c1.5,1.8-1.4,6.8,0.8,8.2
	c2.4,0.2,5.8-3.4,7.7-5.1L218.4,128.7z"/>
<path d="M370.6,115.8c3.2-0.3,10.8-0.2,12.8,2.7c-0.3,0.5-1,0.4-1.6,0.2c-10.1-3.1-20.3-0.4-30.1,3.5c-1.9,0.9-8.9,4.9-9.9,4.9
	l-0.2-0.4c0.7-2.9,6.3-4.6,8.8-5.7C357.2,118,363.2,116.5,370.6,115.8z"/>
<path d="M142.8,131.2c0.4-2.3,8.8-12.1,3.5-12.5c-2.3,3.2-3.1,6.4-4.2,10.1c-0.2,0.7-0.7,2.1-1.4,2.5c-1.1-0.8,0-1.7-2.1-2
	c-2.1,0.7-5,4.8-2.8,6.6c1.7,0.2,3.3-1.3,4.4-2.4l0.5-0.5l0.3,0.1c0.1,1.5-0.3,6.1,1.5,6.1l0.6-0.4
	C141.8,135.3,142.1,134.9,142.8,131.2z M146.4,120.5l0.3,0.3c-0.1,1.3-1.6,4-2.3,5.2l-0.3-0.4C144.2,124.2,145.6,121.9,146.4,120.5z
	 M137.3,134.4l-0.7,0.3l-0.4-0.2c-0.1-1.2,1.4-3.4,2.1-4.5c0.3,0.2,1.5,1.3,1.8,1.7C139,133,138.7,133.4,137.3,134.4z"/>
<path d="M202.2,115.5c2.6,0.9-0.2,4.8-1.1,6.5c2-0.4,4.1-0.8,6.2-0.4l-0.1,0.3c-1.8,0.8-4.7,1.4-6.7,1.9c-1.4,4.2-5.1,12.9-3,16.9
	c0.3,0.3,0.2,0.3,0.3,0.7l-0.3,0.2c-5-0.9,0-14.6,1.2-17.5c-1,0.4-3.3,1.4-4.3,0.9c0.8-1.3,3.3-2,4.8-2.4
	C200.3,120.3,200.9,117.8,202.2,115.5z"/>
<path d="M238.7,132c-2.3,0.4-3.8,1.7-7.4,2.3c0.4-1.5,0.9-2.9,0.3-4.3c-0.8-0.7-1-0.8-2.2-0.8c-3,1.3-5.8,7-2.8,8.9
	c1.9,0.5,2.9-1,4-2.3c1.6-0.3,2.7-0.5,4.3-1c1.7-0.8,2.6-1.2,3.9-2.6L238.7,132z M229.4,134.4c-1-0.3-1.3-0.3-1.5-1.4
	c0.2-0.9,0.9-1.8,1.5-2.5c0.8,0.2,0.5,0,1,0.6C230.5,132.1,229.8,133.5,229.4,134.4z"/>
<path d="M324.1,129.6c0.8,0.1,1.7,0.4,2,1.2c-1.8,2.1-3.3,0.2-6.6,5.6c3.7-1.3,4.4-2.8,7.5-5c1.4,0.6,0.9,8.2,8.3,0.5l0.4,0.1
	l0.1,0.4c-1.4,3.7-6.9,7-9.3,1.4C317.6,141.9,315.9,133.8,324.1,129.6z"/>
<path d="M360.5,120.6c0.9,0.4,0.6,0.1,1.2,0.9c0.7,3.2-4.9,17.4-6.3,21.4c-0.4,0-0.6-0.2-1-0.4c-0.3-0.6-0.4-1.1-0.2-1.7
	C356.5,134.1,358.7,127.6,360.5,120.6z"/>
<path d="M284.4,129.4c0.8,0.1,0.9,0.1,1.5,0.6c0.9,2.7-4,4-4.4,5.9c2.4,1.6,9.2-2.9,11.6-3.7c0.3-0.1,0.5,0.1,0.7,0.3
	c-1.8,2.4-8.6,5.7-11.6,4.8C276.8,135.6,281.7,130.9,284.4,129.4z"/>
<path d="M189.4,128.7c1.5,0.3,0.9,1.1,1.8,2c1.1-0.3,3.6-1.2,4.6-0.5c-0.4,0.7-1.6,0.7-2.5,1.3c-1.1,0.8-1.7,1.5-2.6,2.5
	c-1,1.4-1.3,3.2-2.6,3.9l-0.4-0.3C187.5,135.8,188.9,130.8,189.4,128.7z"/>
<path d="M391.2,128.7c1.3,0.3,1.2,0.8,1.6,1.9c1.4,0.4,2.6-1.4,4.6-0.4c0,0.4-0.2,0.5-0.8,0.8c-1.8,0.6-2.8,1.7-4,3.1
	c-0.8,1.1-1.6,3.4-2.5,3.9l-0.4-0.2C389.2,136.1,390.7,130.6,391.2,128.7z"/>
<path d="M148.1,129.1l0.9,0c0.7,0.4,0.5,0.2,0.8,0.9c-0.5,2.4-2.7,2.1-3.7,3.7l0.3,0.4c2.4,0.7,6.7-2.4,9.1-3.1l0.1,0
	c-0.6,2.2-6,4.4-8,4.1C142.4,134.2,145.9,130.6,148.1,129.1z"/>
<path d="M398.1,135.7c0.1,0.2,0.3,0.4,0.5,0.6c2.7,2.2,10.9-3.6,12.8-3.8l0.3,0.3c-0.9,2.2-13.3,9.4-14.7,2.2
	c0.8-0.5,0.6-0.5,1.3-0.5C398.3,135.3,398.3,135,398.1,135.7z"/>
<path d="M396.9,135c0.8-2.1,3.2-6.1,6-5.1c2.2,2.5-3.1,5-4.8,5.8c0.2-0.7,0.2-0.4,0.1-1.1C397.5,134.5,397.7,134.5,396.9,135z"/>
</svg>
