<?xml version="1.0" encoding="utf-8"?>
<!-- Generator: Adobe Illustrator 27.1.0, SVG Export Plug-In . SVG Version: 6.00 Build 0)  -->
<svg version="1.1" id="Capa_1" xmlns="http://www.w3.org/2000/svg" xmlns:xlink="http://www.w3.org/1999/xlink" x="0px" y="0px"
	 viewBox="0 0 400 60" style="enable-background:new 0 0 400 60;" xml:space="preserve">
<style type="text/css">
	.st0{fill-opacity:0.9725;}
	.st1{fill-opacity:0.9569;}
</style>
<path d="M91.6,30.8c-0.1-4.5,0.3-8.8,3.7-12.1c7.3-7.2,23.7-7,31.2-0.3c3.6,3.2,5.1,8.6,5,13.1c0.1,9.3-0.1,18.6,0.2,27.9
	c-2.5-0.2-14.8,0.3-15.8-0.6c-0.8-1.7-0.4-5.6-0.3-7.6c-2.6,4.6-4.9,6.6-9.9,8.1c-0.6,0.2-1.5,0.3-2,0.6h-3.6
	c-1.8-0.8-4.1-0.9-6.3-2.5c-3.1-2.3-3.6-4.5-4.2-8c-4.2,6.3-11,9.5-18.6,8.8c-10.8-0.9-11.1-8.6-11.1-17.3L60,30
	c0-3.4,0.4-6.2-3.7-6.5c-4.1-0.2-6,0.6-9,3.1c-0.2,6.2,1.2,26-0.1,30.9c-2.7,1.2-14-0.2-16.6,0.7c-2-2.4,0.8-29.7-1.6-33.9
	c-1.8-3-9.4,0.3-11.7,2.3c-0.2,4.6,0.4,29-0.7,31.4C15,58.9,2.3,58.6,0,58.2v-32c4.1-9.1,6.4-11.2,17.1-11c0,2.6,0,5.3,0.1,7.9
	c6.2-7.5,17-12,26.1-5.8c2.5,1.7,2.7,4.3,3.9,6.8c1.8-2.3,3-3.8,5.3-5.7c7.6-6,23.8-6.4,24.8,6.1c0.6,7.1-0.2,14.4,0.2,21.5
	c0.3,5.1,7.5,3.3,10.7,2c2.1-2.6,2.4-5,3.8-6.8c6.1-7.7,14.9-8.9,23.3-10.9c0-1.7,0-3.8,0-5.3c0-2.1,0.1-7.5-1.9-8.8
	c-8.5-5.5-9.2,4.9-9.6,9C100.5,27,94.1,29.2,91.6,30.8z M105.5,52.3c1.6,0.8,3,1.4,4.8,0.8c2.1-0.7,3.8-2.6,5-4.4
	c0-4.2,0.5-12.8-0.1-16.4l-0.3-0.2c-5.3,3-9.1,6.5-10.8,12.6c-0.6,2.2-0.6,4.5,0.6,6.5C104.8,51.6,105.1,52,105.5,52.3z"/>
<path d="M252.9,17.9c-2-2.7-4.8-4-7.9-2.3c-2.6,1.5-2.2,7.5-3.2,9.8c-1.6,1.1-9.3,4.2-11.3,4.7c-2.4-1.1,0-6.4,0.8-8.2
	c1.7-3.7,4.6-6,8.5-7.1c6.7-2.1,15-2.1,21.4,1.1c5.3,2.6,8,8.2,8.3,13.9c0.4,6.5,0.3,13,0.2,19.5c0,2.1,0.4,8-0.1,9.6
	c-1.1,0.8-13.3,0.5-15.6,0.5c-0.3-2.2-0.6-4.9-0.5-7.1c-2.2,2.5-5,6.1-8.4,6.8c-0.8,0.2-2.8,0.5-3.4,0.9h-3.6
	c-6.7-2.7-8.2-1.9-10.4-10.2c-4.5,6.9-14.2,10.2-22,7.9c-8-2.3-7.5-9.3-7.4-16l0.1-10.4c0-4.3,0.3-8.6-5.5-8.1c-2.9,0.3-5,1.6-7.5,3
	c-0.5,2.2-0.6,29.3-0.2,32l-0.5,0c-1.5-0.6-14-0.3-16.2-0.2c-1.7-6.1,1.4-30.3-1.1-33.4c-0.7-0.8-1.7-1.2-2.7-1.3
	c-3.5-0.3-6.6,1-9.2,3.2l0,20.2c0,3,0.1,8.3-0.1,11.2c-1.3-0.2-15.9,0-16.6,0.3c-0.8-1.5-0.5-26.3-0.4-29.7
	c0.3-10.3,7.8-13.2,17-13.3c-0.1,3,0.2,5.7-0.2,8.6c5.1-8.4,16.5-11.9,25.3-7.2c3.5,1.9,4.2,6.6,4.9,7c1.8-1.4,3.4-3.5,5.1-5.1
	c4.9-4.6,18.6-5.8,22.8,0.2c5,8.3,0.1,20.6,2.9,29.6c0.3,0.9,1.9,1.1,2.7,1.2c8,1,8.3-3.3,11.5-8.2c4.5-6.9,15.3-9.3,22.9-10.8
	C253.3,27.4,253.5,20.4,252.9,17.9z M243.6,52.1c1.3,0.9,2.5,1.4,4.1,1.1c1.7-0.3,3.4-1.5,4.3-2.9c2.4-3.4,1.1-13.6,1.2-18
	c-0.1-0.1-0.3-0.3-0.4-0.3c-5.3,3.1-9,6.4-10.7,12.6c-0.6,2.2-0.4,4.6,0.7,6.6C243.1,51.5,243.3,51.8,243.6,52.1z"/>
<path d="M320.7,60c-7-2.1-13.6-5.6-17-12.4c-4.4-8.9-2.3-20.9,5.2-27.5c18.8-16.4,46.9-0.6,39.8,24.3c-1.6,5.6-5.9,9.6-10.8,12.5
	c-1.5,0.9-7.7,2.6-8.3,3.1H320.7z M326.4,57.9c9.8-2.2,9.1-24.8,7-32.2c-1.4-4.9-2.5-10-8.3-10.7c-2.3,0.7-2.6,1-4.2,3
	C315.4,25.1,314.1,58.5,326.4,57.9z"/>
<path d="M352.6,14c5.4,0,13.9,0.2,19-0.3c1.1,2.6,2.5,9,3.2,11.9l4.8,18.5c0.4,1.6,1.7,7.4,2.5,8.6l0.4-0.1c0-0.1,0-0.1,0-0.2
	c0.1-0.5,0.7-2.8,0.9-3.1c1.5-2.8,11.3-34.2,12.6-35.1c1.3-0.6,2.7-0.2,4.1,0v0.6c-1.6,2.1-2.6,6.9-3.5,9.5
	c-1.4,4.4-10.3,33.3-11.9,34.9c-0.6,0.6-15.6,0.5-17.9,0.4c-1.2-3.1-2.2-6.8-3.2-10c-2.9-8.7-5.1-17.6-8-26.3
	C354.6,20.5,353.8,16.5,352.6,14z"/>
<path d="M276.9,0h15.5l-0.1,0.3c-0.5,1-0.1,3.4-0.1,4.7c0,3.9,0.1,7.9,0.1,11.8c0,9.2-0.5,18.3-0.3,27.5c0.1,2.3,0.1,13.5-0.2,15
	c-4.4,0-8.7,0.1-13.1,0c-2.4-0.1-2.3-2.6-2.3-4.7c0.1-17.3-0.2-34.6,0-51.9C276.4,1.8,276.6,0.8,276.9,0z"/>
<path class="st0" d="M292.3,0.3c0.4,2.2,0.4,57.2,0.1,58.7c-0.3,0.3-0.3,0.4-0.7,0.4c0.4-1.6,0.3-12.8,0.2-15
	c-0.2-9.2,0.3-18.3,0.3-27.5c0-3.9,0-7.9-0.1-11.8C292.2,3.7,291.8,1.3,292.3,0.3z"/>
<path class="st0" d="M185.1,58.3c-0.4-2.6-0.3-29.8,0.2-32c0.1,0.8,0.3,3.5,0.2,4.3C185.2,34,186.1,57,185.1,58.3z"/>
<path class="st1" d="M30.7,58.2c2.6-0.9,13.9,0.6,16.6-0.7c-1,1.1-1.6,1-3.2,1C41.8,58.5,32.2,58.8,30.7,58.2z"/>
<path class="st1" d="M138.7,58.2c0.7-0.3,15.3-0.5,16.6-0.3c-1.3,0.9-14.2,0.7-15.9,0.5C139.2,58.4,138.9,58.3,138.7,58.2z"/>
<path class="st1" d="M168.4,58.1c2.3-0.1,14.8-0.4,16.2,0.2C183.3,58.7,169.4,58.9,168.4,58.1z"/>
</svg>
